<svg width="0" height="0" class="hidden">
  <symbol xmlns="http://www.w3.org/2000/svg" stroke-width="2" stroke="currentColor" fill="none" stroke-linecap="round" stroke-linejoin="round" viewBox="0 0 24 24" id="circle-chevron-down">
    <path stroke="none" d="M0 0h24v24H0z" fill="none"></path>
    <path d="M15 11l-3 3l-3 -3"></path>
    <path d="M12 3a9 9 0 1 0 0 18a9 9 0 0 0 0 -18z"></path>
  </symbol>
  <symbol xmlns="http://www.w3.org/2000/svg" stroke-width="2" stroke="currentColor" fill="none" stroke-linecap="round" stroke-linejoin="round" viewBox="0 0 24 24" id="square-rounded-arrow-right">
    <path stroke="none" d="M0 0h24v24H0z" fill="none"></path>
    <path d="M12 16l4 -4l-4 -4"></path>
    <path d="M8 12h8"></path>
    <path d="M12 3c7.2 0 9 1.8 9 9s-1.8 9 -9 9s-9 -1.8 -9 -9s1.8 -9 9 -9z"></path>
  </symbol>
  <symbol xmlns="http://www.w3.org/2000/svg" stroke-width="2" stroke="currentColor" fill="none" stroke-linecap="round" stroke-linejoin="round" viewBox="0 0 24 24" id="chevron-down">
    <path stroke="none" d="M0 0h24v24H0z" fill="none"></path>
    <path d="M6 9l6 6l6 -6"></path>
  </symbol>
  <symbol xmlns="http://www.w3.org/2000/svg" stroke-width="2" stroke="currentColor" fill="none" stroke-linecap="round" stroke-linejoin="round" viewBox="0 0 24 24" id="chevrons-left">
    <path stroke="none" d="M0 0h24v24H0z" fill="none"></path>
    <path d="M11 7l-5 5l5 5"></path>
    <path d="M17 7l-5 5l5 5"></path>
  </symbol>
</svg>